<svg xmlns="http://www.w3.org/2000/svg" viewBox="0 0 86.93 86.94"><defs><style>.cls-1{fill:none;stroke:#000;stroke-miterlimit:10;}</style></defs><title>gears</title><g id="Layer_2" data-name="Layer 2"><g id="Layer_1-2" data-name="Layer 1"><path class="cls-1" d="M74.67,34.76l-2.92-7.32,6-10.2-8.11-8-10.19,6-7.26-3L49.14.5H37.79l-3,11.73-7.26,3-10.19-6-8.11,8,6,10.2-2.92,7.32L.5,37.87v11.2l11.76,3.11,2.92,7.32-6,10.2,8.11,8,10.19-6,7.26,3,3,11.73H49.14l3-11.73,7.26-3,10.19,6,8.11-8-6-10.2,2.92-7.32,11.76-3.11V37.87ZM43.47,64A20.54,20.54,0,1,1,64,43.47,20.54,20.54,0,0,1,43.47,64Z"/></g></g></svg>